<?xml version="1.0" encoding="UTF-8" standalone="no"?>
<svg
   version="1.1"
   width="456"
   height="398"
   id="svg60"
   sodipodi:docname="lb.svg"
   inkscape:version="1.4.2 (ebf0e940, 2025-05-08)"
   xmlns:inkscape="http://www.inkscape.org/namespaces/inkscape"
   xmlns:sodipodi="http://sodipodi.sourceforge.net/DTD/sodipodi-0.dtd"
   xmlns="http://www.w3.org/2000/svg"
   xmlns:svg="http://www.w3.org/2000/svg">
  <defs
     id="defs60" />
  <sodipodi:namedview
     id="namedview60"
     pagecolor="#ffffff"
     bordercolor="#000000"
     borderopacity="0.25"
     inkscape:showpageshadow="2"
     inkscape:pageopacity="0.0"
     inkscape:pagecheckerboard="0"
     inkscape:deskcolor="#d1d1d1"
     inkscape:zoom="0.35815286"
     inkscape:cx="889.28509"
     inkscape:cy="198.23938"
     inkscape:window-width="1440"
     inkscape:window-height="717"
     inkscape:window-x="0"
     inkscape:window-y="25"
     inkscape:window-maximized="0"
     inkscape:current-layer="svg60" />
  <path
     id="path2"
     d="m 98.785596,15.755494 -2.621505,0.01471 c -12.175342,0.416072 -14.315746,8.842672 -16.538275,12.923592 -0.220707,4.10514 -0.220707,4.10514 0.392367,7.768868 0.547609,0.0728 64.034307,79.101186 64.034307,79.101186 V 75.385468 c 17.97311,0.129507 35.94557,0.262001 53.91858,0.40463 8.74197,0.06944 17.48526,0.138939 26.22728,0.201087 7.67481,0.0543 15.34984,0.111985 23.02458,0.174113 3.25287,0.02686 6.5048,0.05264 9.75769,0.07847 4.68076,0.03109 9.36113,0.06347 14.04182,0.102995 l 4.30869,0.03679 c 6.58851,0.0358 13.1258,-0.02387 19.66005,0.902444 l 3.49696,0.610621 v 2.511149 l 6.27787,1.255574 v 2.511149 c 1.86174,0.620578 3.41203,1.295261 4.84328,2.101615 0.45156,0.427234 0.96704,0.983577 1.67001,1.743581 l 2.27573,2.432676 0.50518,-1.010344 c 0.36084,0.305631 0.72773,0.625311 1.10353,0.961299 0.95614,1.134326 1.7995,2.322331 2.54302,3.555826 2.5669,5.884943 4.33741,12.084327 4.99533,18.379937 0.22779,4.0652 0.082,8.17565 -0.18393,12.14131 -0.1478,1.0486 -0.33294,2.09623 -0.5542,3.14138 -3.7e-4,0.002 -0.003,0.003 -0.003,0.005 l -0.87301,1.74849 c -0.79573,1.74941 -1.61488,3.4492 -2.47681,5.10813 -0.0113,-0.0286 -0.0226,-0.0565 -0.0343,-0.0859 -0.62682,1.18133 -1.26533,2.32435 -1.92014,3.43566 l -1.84659,-0.92452 c -2.01246,3.91902 -3.3203,6.00794 -7.14107,8.31819 l -2.90353,1.72642 v 3.15119 c -0.37199,0.21004 -0.73572,0.41492 -1.09371,0.61553 h -3.92858 c -4.66309,1.44333 -5.93391,2.02878 -8.68357,6.12093 -1.50336,0.52339 -2.97555,0.92837 -4.51222,1.23841 0.63568,-0.30538 1.26645,-0.6635 1.89562,-1.08147 -5.0553,-0.0113 -10.11002,0.019 -15.16498,0.0784 l -2.90598,0.0368 c -3.26396,0.0388 -6.52804,0.0782 -9.792,0.11764 -2.32772,0.0282 -4.65396,0.0555 -6.98168,0.0834 -6.10576,0.0729 -12.21288,0.14704 -18.31863,0.2207 -6.3251,0.0763 -12.65075,0.15231 -18.97586,0.22807 -13.62125,0.16314 -27.24132,0.32622 -40.86256,0.49047 l 38.9228,60.26757 c 10.24495,0.12241 20.48982,0.24982 30.73461,0.385 5.21774,0.0694 10.43516,0.14057 15.65297,0.20355 5.11708,0.0605 10.23441,0.12179 15.35138,0.19127 1.94056,0.0269 3.88115,0.0526 5.82174,0.0784 2.80588,0.031 5.6105,0.0631 8.41627,0.10296 l 2.56265,0.0368 c 2.69959,0.0343 5.3997,0.10182 8.09502,0.25748 l 1.25557,1.25558 c 2.6677,0.0468 5.33641,0.0519 8.00428,0.0125 2.78714,0.70603 5.49552,1.62138 8.30347,2.7392 l 2.52586,1.01526 c 5.08062,1.83953 8.90607,3.57958 12.7127,7.3765 0.19263,0.21164 0.38576,0.42382 0.57874,0.63515 -0.24029,-0.15802 -0.4857,-0.31782 -0.73569,-0.4782 v 2.51115 c 4.07748,3.96164 5.57266,7.68594 7.55307,12.98735 l 1.23595,3.33511 c 3.65077,8.98748 3.16466,17.02287 3.89915,27.39212 l -4.60541,13.72795 c -6.31032,10.85531 -48.21697,32.14643 -50.88247,32.81093 12.74027,15.64602 24.19847,36.10459 39.03298,50.37079 19.76943,12.95221 81.79023,-55.39917 79.38321,-100.37975 l -0.0466,-3.75446 c -0.004,-5.49533 -5.3051,-66.7648 -44.18052,-80.43523 h -2.51115 v -2.51115 l -13.81132,-3.76659 c 1.48748,-4.46242 2.73886,-5.69238 6.27788,-8.78902 3.53315,-1.89636 6.49887,-3.8298 9.13725,-6.12338 1.9781,-1.33398 3.53469,-3.1097 5.28713,-5.60594 l 0.19865,-0.30162 c 0.003,-0.004 0.007,-0.009 0.01,-0.0125 0.57337,-0.75892 1.13855,-1.55796 1.69698,-2.39835 l 1.64097,-2.58713 c 0.69981,-1.08022 1.24726,-2.18532 1.87848,-3.27628 0.31251,-0.54394 0.64254,-1.08841 0.93921,-1.64058 4.26367,-7.8274 6.92006,-15.94431 8.04108,-24.62349 l 0.0491,2.62395 h 1.25557 c 1.60444,-4.13473 2.51419,-7.58058 2.80052,-12.02604 l -0.054,-4.61031 c -0.0149,-2.82609 -0.0799,-5.65328 -0.23541,-8.47513 -1.5174,-3.96137 -1.5174,-3.96137 -1.88337,-8.239714 -0.16679,-1.861491 -0.36702,-3.720929 -0.62778,-5.571604 -1.62109,-1.433017 -1.62109,-1.433017 -2.47681,-4.948728 l -1.36839,-4.546553 -1.37818,-4.556362 -1.0545,-3.526399 h -1.25802 c -0.376,-1.684523 -0.7872,-3.361059 -1.25312,-5.022297 l -2.51116,-1.255575 c -0.39236,-2.197255 -0.39236,-2.197255 -1.25557,-5.022297 -1.85664,-1.809035 -3.69186,-3.640784 -5.50785,-5.490685 -0.3227,-1.148565 -0.81507,-2.160292 -1.50326,-3.256647 -0.3615,-1.146792 -0.72935,-2.164115 -1.1869,-3.126674 -0.23949,-0.51439 -0.50374,-1.014294 -0.80436,-1.510613 l 0.21335,-0.426699 -1.14522,-0.939229 -0.003,-0.0025 c -0.4734,-0.621075 -1.02091,-1.249563 -1.66756,-1.902979 l -3.3057,-2.49153 c -0.55756,-0.429414 -1.11156,-0.849348 -1.6651,-1.260479 -2.01998,-1.55167 -4.02986,-3.116542 -6.02529,-4.7035 -2.19713,-2.23591 -3.79065,-4.001798 -5.81683,-5.444092 -0.86658,-1.031753 -1.75782,-1.46994 -4.62013,-2.874089 l -4.62993,-1.726414 c -0.007,-0.0026 -0.0131,-0.0046 -0.0196,-0.0074 -1.33083,-1.285595 -1.6964,-1.432394 -3.46754,-2.140852 -4.22865,-1.299581 -8.41152,-2.615915 -12.53147,-4.232367 -5.48845,-2.163307 -10.28185,-3.988166 -16.23418,-3.97765 l -4.15909,0.313894 v -2.51123 c -26.15918,-0.111877 -52.31894,-0.200075 -78.47831,-0.252587 -12.71661,-0.02522 -25.43136,-0.05179 -38.14788,-0.1079 -11.17005,-0.05038 -22.34043,-0.09228 -33.5106,-0.107901 -5.89856,-0.006 -11.79724,-0.01031 -17.69575,-0.04169 -5.64451,-0.03504 -11.28844,-0.06274 -16.93308,-0.06131 -2.07891,0.0029 -4.15728,0.0014 -6.23618,0 -2.89985,-0.02745 -5.80077,-0.05486 -8.700744,-0.04659 z m -18.767408,58.3744 c -0.02796,37.583706 -0.05074,75.167846 -0.06376,112.751576 -0.0015,4.52929 -0.0033,9.05887 -0.0049,13.58815 v 2.73432 c -0.0054,14.65082 -0.01546,29.30164 -0.02698,43.95246 -0.01193,15.08075 -0.01932,30.16159 -0.02207,45.24236 -0.0013,8.45625 -0.0033,16.91273 -0.01231,25.36898 -0.008,7.26834 -0.01258,14.53744 -0.01231,21.8058 7.12e-4,2.98172 3.55e-4,5.96423 0,8.94597 -0.0069,4.17001 -0.01434,8.33912 -0.01231,12.50915 l 0.0025,3.75446 -0.0098,3.53375 0.0074,3.21741 c -0.0019,3.53364 0.26433,5.51855 1.410068,8.95578 2.681661,2.75776 4.511367,4.17899 7.477045,5.00758 0.829309,0.25234 1.782989,0.44708 2.928038,0.61308 h 0.142234 c 0.0047,6.6e-4 0.0075,-6.6e-4 0.01227,0 l 5.005132,-0.0417 c 2.901511,-0.003 5.799425,-0.0131 8.700745,-0.054 0.0499,-6.8e-4 0.0997,7.1e-4 0.14959,0 2.16164,-0.0315 4.32449,-0.0552 6.48632,-0.0687 5.8435,-0.0253 11.68579,-0.0683 17.52899,-0.13487 6.26118,-0.0717 12.52312,-0.12268 18.78457,-0.16431 11.82168,-0.0774 23.64371,-0.17549 35.46507,-0.29182 13.56525,-0.13352 27.1303,-0.24638 40.69582,-0.34823 29.21705,-0.2179 58.43337,-0.46928 87.64988,-0.7504 0,0 -38.29179,-58.59578 -38.2435,-58.55328 -3.99287,-2.14461 -3.99351,-2.14458 -11.8642,-2.18254 l -3.53867,0.0417 c -3.93528,-9.6e-4 -7.86768,0.003 -11.80289,0.0294 -2.81336,0.0203 -5.62737,0.0323 -8.44079,0.0392 -7.36772,0.01 -14.73492,0.0327 -22.10253,0.0735 -7.63695,0.0427 -15.27473,0.0685 -22.91177,0.0883 -14.85423,0.037 -29.70901,0.0954 -44.56309,0.17166 l -4.77951,0.0245 c 0.16796,-21.27445 0.30142,-42.54845 0.3801,-63.8234 0.24365,-32.11125 0.19424,-64.22578 0.5566,-96.33592 -0.047,-6.62165 0.26458,-11.58675 -4.62994,-16.44507 z M 142.86803,306.65885 c -0.0155,5.72262 -0.0343,11.44335 -0.0589,17.16606 l -0.008,1.41987 c 0.024,-6.19561 0.0454,-12.39032 0.0662,-18.58593 z"
     sodipodi:nodetypes="cccccccccccccccccccccccccsccccccccccccccccscsscccccccccccccccccccccccccccccccccsccccccccccccccccccccccccccccccccccccccccccccccccsccsccccccccccccccsccccscccccccccscccccccccc"
     style="stroke-width:1.25557" />
</svg>
