<?xml version="1.0" encoding="UTF-8" standalone="no"?>
<svg
   version="1.1"
   width="1181"
   height="1181"
   id="svg5"
   sodipodi:docname="tstar_400.svg"
   inkscape:version="1.4.2 (ebf0e940, 2025-05-08)"
   xmlns:inkscape="http://www.inkscape.org/namespaces/inkscape"
   xmlns:sodipodi="http://sodipodi.sourceforge.net/DTD/sodipodi-0.dtd"
   xmlns="http://www.w3.org/2000/svg"
   xmlns:svg="http://www.w3.org/2000/svg">
  <defs
     id="defs5" />
  <sodipodi:namedview
     id="namedview5"
     pagecolor="#ffffff"
     bordercolor="#000000"
     borderopacity="0.25"
     inkscape:showpageshadow="2"
     inkscape:pageopacity="0.0"
     inkscape:pagecheckerboard="true"
     inkscape:deskcolor="#d1d1d1"
     inkscape:zoom="0.065"
     inkscape:cx="669.23077"
     inkscape:cy="-607.69231"
     inkscape:window-width="1208"
     inkscape:window-height="628"
     inkscape:window-x="0"
     inkscape:window-y="25"
     inkscape:window-maximized="0"
     inkscape:current-layer="svg5"
     labelstyle="below" />
  <path
     id="path1"
     d="m 325.3581,155.71725 c -12.45528,0.0384 -12.45493,0.0396 -17.73963,15.81709 l -1.92683,5.84042 c -9.77649,29.45506 -9.77649,29.45506 -28.49988,90.43233 39.83183,3.12741 83.36162,8.27222 122.76874,0 21.42639,-8.32075 35.81458,-26.86411 47.74244,-45.79421 l 2.68043,-4.62866 2.1923,2.1923 c -7.04247,22.85717 -14.43786,45.5868 -22.04716,68.26099 -9.96904,29.69743 -19.79571,59.43769 -29.322,89.28052 -1.28315,4.0296 -2.56591,8.05811 -3.84937,12.08762 -1.84795,5.77081 -3.69507,11.54011 -5.52784,17.31574 l -1.69133,5.34373 -1.60141,4.99261 -1.47294,4.6886 c -2.17318,6.84539 -2.17478,6.84432 -4.64151,21.64468 h 142.49943 c 9.3021,-27.9063 18.61354,-55.79903 27.7677,-83.75267 2.90627,-8.88422 5.81764,-17.76812 8.73066,-26.65014 3.72274,-11.35089 7.44805,-22.70417 11.16272,-34.0577 3.1105,-9.5103 6.22269,-19.01849 9.34297,-28.52558 1.18114,-3.59676 2.36119,-7.19305 3.54109,-10.79022 1.66807,-5.10972 3.33643,-10.21807 5.01403,-15.32468 l 1.53717,-4.67148 c 2.73897,-8.42863 5.65001,-16.25838 9.63412,-24.22662 l 17.5384,52.61517 h 135.92253 c 0,-4.3846 0,-4.3864 -1.33164,-8.99185 l -1.8883,-5.7505 -2.12806,-6.51695 -2.32504,-7.05218 c -2.43394,-7.43454 -4.86954,-14.8685 -7.31338,-22.29979 -1.70364,-5.17954 -3.40495,-10.36199 -5.10394,-15.54306 -4.98743,-15.221 -9.98193,-30.43752 -14.98642,-45.65291 -50.42253,-0.0488 -100.84611,-0.0884 -151.26863,-0.11133 -24.50455,-0.011 -49.00597,-0.0226 -73.51053,-0.0471 -21.53015,-0.022 -43.06129,-0.0403 -64.59146,-0.0471 -11.36128,-0.003 -22.72213,-0.004 -34.08341,-0.0171 -10.88402,-0.0153 -21.76922,-0.0263 -32.65326,-0.0257 -3.99608,0.001 -7.99304,6.2e-4 -11.98913,0 -5.59809,-0.0118 -11.19525,-0.025 -16.79335,-0.0215 l -5.02259,0.004 z m 445.10092,0.2826 c 0,6.5769 9e-4,6.57566 1.12185,10.94008 l 1.59283,5.03116 1.79409,5.72053 1.97393,6.16584 c 1.36742,4.31509 2.73623,8.62974 4.10628,12.94398 2.17351,6.79487 4.34621,13.59182 6.49554,20.39438 1.40044,4.43667 2.8024,8.87031 4.21332,13.30366 l 2.03816,6.38421 1.9311,6.12731 1.8626,5.78475 c 2.71306,8.5107 6.0139,15.14497 10.13939,23.39594 l 63.57667,32.88448 -236.76829,2.1923 v 6.5769 l 6.57689,19.73069 35.07679,109.61495 243.34518,2.1923 c -2.32155,2.44783 -2.32155,2.44571 -6.02882,4.88128 l -4.93267,3.37408 c -3.65342,2.54686 -7.30726,5.09311 -10.9615,7.63881 l -5.61776,3.81083 -5.34373,3.75944 c -4.93267,3.40192 -4.93267,3.40192 -8.7692,7.22774 -1.97377,6.31685 -2.32204,10.34844 -0.95913,16.85758 l 2.14091,6.41848 2.39356,7.30908 2.65044,7.82291 c 2.74323,8.30406 5.48904,16.6054 8.27679,24.89459 2.42413,7.20672 4.827,14.423 7.21917,21.64038 5.14965,15.54313 10.33349,31.07323 15.54735,46.59492 4.38459,0 4.38567,-0.002 7.98562,-2.39782 9.18867,-7.16906 18.50649,-14.11381 27.95609,-20.93389 l 4.88985,-3.52395 c 8.39791,-6.07749 16.78648,-12.16789 25.28852,-18.09931 l 4.49593,-3.11289 c 2.76775,-1.92848 5.5366,-3.8554 8.30675,-5.78048 4.58771,-3.10259 8.83068,-6.23507 13.15378,-9.72833 3.702,-5.34741 4.5692,-7.67809 3.4854,-14.16431 l -2.0724,-6.13587 -2.3207,-7.05217 c -1.7986,-5.23209 -3.5676,-10.47311 -5.3138,-15.7229 -1.41974,-4.26955 -2.84923,-8.5403 -4.29038,-12.80268 -3.06955,-9.04349 -6.11483,-18.09039 -9.13317,-27.15112 -1.02419,-3.07779 -2.04977,-6.15825 -3.07434,-9.23591 l -1.54575,-4.63294 c -1.55237,-4.6628 -3.10458,-9.32795 -4.66291,-13.98875 -8.28349,-24.75321 -16.37332,-49.56093 -24.28657,-74.4354 -12.06824,-38.01228 -24.24983,-75.98693 -36.59684,-113.90963 -1.66933,-5.12115 -3.33675,-10.24186 -5.00546,-15.36322 -2.34159,-7.21186 -4.68187,-14.42373 -7.03504,-21.63182 l -2.17945,-6.66254 -1.99535,-6.15727 -1.91826,-5.85327 c -2.76289,-8.47116 -2.76503,-8.47116 -12.63141,-33.13711 z M 261.84566,313.84537 c -2.43412,4.86825 -2.43322,4.86962 -5.77619,15.50452 -1.03321,3.30982 -2.0718,6.61794 -3.1129,9.92529 l -1.73414,5.49788 c -14.58867,46.36512 -29.64723,92.56714 -44.86933,138.72714 -15.45836,46.87571 -30.93256,93.74838 -46.07682,140.72674 -1.53917,4.78476 -3.0799,9.56829 -4.6201,14.35272 -2.15178,6.6415 -4.30346,13.2841 -6.43559,19.93194 l -1.91398,5.98171 c -3.82531,11.75971 -6.85417,22.88767 -8.22969,35.19668 12.04559,9.09822 24.19637,18.03571 36.44697,26.85566 8.4247,6.05399 16.87039,12.0774 25.21572,18.24061 l 4.41457,3.2799 c 2.72919,2.00643 5.45816,4.01318 8.18687,6.02025 7.81803,5.90875 11.903,9.18025 22.19703,9.18025 3.57437,-10.84579 7.14046,-21.69425 10.69602,-32.54621 1.45781,-4.45197 2.9165,-8.90365 4.37603,-13.35505 2.14874,-6.51968 4.29589,-13.03964 6.43132,-19.5637 l 2.04671,-6.25575 c 1.892,-5.71688 3.75872,-11.43249 5.53213,-17.1873 l 1.60997,-5.36085 c 3.8344,-12.08307 5.85502,-20.03792 -0.13274,-31.99386 l -2.24797,-4.05062 c -2.28482,-4.44447 -4.58034,-8.87572 -6.9537,-13.27367 -1.64584,-3.0439 -3.2684,-6.10143 -4.87272,-9.16741 -3.69411,-7.11903 -7.41268,-14.22232 -11.20556,-21.28928 l -3.08719,-5.72482 c 20.04503,14.28467 40.03287,28.64555 59.97992,43.06669 6.6897,4.83752 13.38058,9.67343 20.07324,14.50686 3.27709,2.36634 6.55412,4.73277 9.83109,7.09927 8.24055,5.95499 16.47739,11.91103 24.73187,17.84668 3.3421,2.40138 6.68728,4.80313 10.02806,7.20632 l 4.97549,3.58391 c 8.18686,5.88707 16.3635,11.78093 24.4193,17.84667 l 4.92839,3.75089 c 3.14514,2.38915 6.28809,4.78115 9.4286,7.17636 8.60661,6.67358 16.21742,12.61079 26.71864,16.03119 2.1923,-4.3846 2.19129,-4.38598 3.74232,-8.82913 l 1.81551,-5.53214 2.06383,-6.28146 2.22657,-6.82095 c 1.56205,-4.77118 3.12347,-9.54259 4.68432,-14.31417 2.45389,-7.51979 4.90799,-15.04066 7.37332,-22.5567 1.60562,-4.89387 3.20845,-9.78673 4.8085,-14.68242 l 2.31647,-7.0907 c 5.41783,-16.49365 10.40143,-33.0226 14.81514,-49.81487 -9.27228,-6.03879 -18.22048,-12.41808 -27.11258,-19.00278 -19.0037,-14.11207 -38.12666,-28.05143 -57.33374,-41.8849 -4.96493,-3.57386 -9.92926,-7.14777 -14.88795,-10.73027 l -5.09966,-3.69094 c -3.37123,-2.43779 -6.74246,-4.87558 -10.11369,-7.31337 -7.7972,-5.63915 -15.58959,-11.28315 -23.43019,-16.86187 -18.65075,-13.21279 -36.8993,-26.78786 -54.9445,-40.823 l 54.80748,-2.1923 c 2.1923,-4.3846 2.19317,-4.38302 3.66096,-8.57651 l 1.69561,-5.18102 1.93111,-5.87896 2.08097,-6.38849 c 1.46214,-4.47148 2.92365,-8.94313 4.3846,-13.41498 2.29512,-7.04342 4.59153,-14.08688 6.89803,-21.12657 1.5024,-4.58425 3.00334,-9.16721 4.50022,-13.75326 l 2.1666,-6.64969 c 5.26082,-16.03215 9.88898,-32.07201 14.33558,-48.37616 z m 574.38233,192.92231 c -3.49332,2.19899 -6.96625,4.44901 -10.26355,6.93229 -2.81599,2.19009 -5.64497,4.3573 -8.49088,6.50839 l -4.57299,3.44686 c -7.91067,6.00982 -15.91135,11.87577 -23.97399,17.67971 l -4.90271,3.52394 c -8.56198,6.19003 -17.12054,12.38071 -25.73809,18.49325 l -5.682,4.02063 c -3.63933,2.58942 -7.27887,5.17852 -10.91868,7.76725 l -5.24095,3.67382 -4.77854,3.40834 c -4.24865,2.99889 -4.24865,2.99889 -7.24486,5.66058 0,4.8885 0.002,4.88964 4.00778,17.5127 l 1.79839,5.60064 c 1.99457,6.25601 3.99272,12.51067 5.99885,18.76299 1.4485,4.51259 2.89388,9.02502 4.33749,13.53916 8.67584,27.13492 17.44914,54.23894 26.329,81.30774 l 1.38304,4.21761 c 4.49083,13.6917 8.98428,27.38377 13.50061,41.06707 1.71199,5.18478 3.41834,10.36951 5.12536,15.55592 l 2.38925,7.25341 2.29935,6.93229 2.0767,6.31999 c 1.67976,5.08394 3.10004,8.97202 3.10004,14.31417 -4.22912,-3.31666 -8.4662,-6.62243 -12.71277,-9.91673 l -5.23668,-4.05917 -5.10823,-4.00779 -4.98833,-3.85367 c -4.90113,-3.81613 -9.35974,-6.72766 -14.97358,-9.41574 -5.20939,-1.63031 -5.21099,-1.63138 -10.09227,0.69794 l -5.2581,4.24758 -6.37137,4.96691 c -7.30456,5.80376 -14.77712,11.3544 -22.29123,16.88329 l -5.31803,3.90931 c -8.99262,6.65904 -17.97867,13.31931 -27.13827,19.74781 l -5.40367,3.74232 c -3.39993,2.35891 -6.80244,4.7141 -10.20789,7.06504 -7.95443,5.38036 -15.20289,8.75062 -18.36051,18.22348 7.82403,6.40708 15.87525,12.41907 24.0682,18.33909 l 4.97977,3.5839 c 5.31371,3.82624 10.63243,7.64731 15.9541,11.46248 l 5.42081,3.88361 c 5.21267,3.73336 10.43028,7.46252 15.65437,11.17987 l 4.89843,3.48113 4.69288,3.35269 4.40174,3.11288 c 5.27077,3.74285 10.55608,6.77607 16.39086,9.56562 v -4.3846 c 4.3846,0 4.38352,-5.3e-4 7.9642,-2.37213 l 4.24758,-3.30557 4.75284,-3.65669 c 3.19946,-2.46629 6.42118,-4.90735 9.65982,-7.32195 l 4.73572,-3.49398 c 20.54534,-15.16757 41.16756,-30.22244 61.88963,-45.14765 9.84734,-7.08863 19.68408,-14.19192 29.51895,-21.29784 8.20663,-5.92949 16.4135,-11.86115 24.62912,-17.77818 16.77232,-12.07356 33.52045,-24.17558 50.14884,-36.44697 24.4602,-18.06917 49.00448,-36.0188 73.81876,-53.59998 5.0342,-3.5647 10.0569,-7.14409 15.0635,-10.74742 2.445,-1.76612 4.8913,-3.53017 7.3391,-5.29234 4.1045,-2.90732 8.1999,-5.8215 12.2632,-8.78632 l 3.905,-2.86027 c 4.6313,-3.24366 8.2613,-6.25336 12.3317,-10.2764 0.5771,-5.8097 0.125,-10.43874 -1.2503,-16.10827 l -1.7684,-5.35657 -1.9953,-6.11446 -2.1795,-6.51266 c -2.2758,-6.93076 -4.5545,-13.86149 -6.8552,-20.78402 -1.6009,-4.8144 -3.1979,-9.62862 -4.7871,-14.4469 -4.6631,-14.16802 -9.3427,-28.33058 -14.0487,-42.48437 -6.5769,0 -6.5785,10e-4 -10.058,2.06813 l -3.7552,2.91593 -4.2518,3.25419 c -3.0783,2.40238 -6.1709,4.79267 -9.2702,7.16778 l -4.8128,3.67381 c -8.29285,6.34526 -16.72178,12.4579 -25.26283,18.46328 l -6.6711,4.67576 c -2.72594,2.04276 -5.48675,4.03913 -8.26393,6.0117 -6.34162,3.80449 -12.4978,7.64838 -18.48468,11.98486 -14.01315,11.5209 -15.78286,26.17425 -17.78673,43.4392 -0.39729,3.471 -0.83957,6.93687 -1.32738,10.3963 -1.1871,8.03995 -2.32863,16.0763 -3.30129,24.14525 l -0.7536,6.49554 c -8.51994,-27.01254 -17.09965,-54.00608 -25.73382,-80.98231 -2.09422,-6.53957 -4.19128,-13.07851 -6.28147,-19.61937 -5.11456,-16.01205 -10.23847,-32.01855 -15.4103,-48.0122 -2.3369,-7.21709 -4.67714,-14.43204 -6.98795,-21.65753 -2.22843,-6.98582 -4.46804,-13.96768 -6.73104,-20.94244 l -2.5263,-7.76297 -2.36356,-7.46752 -2.22656,-6.77815 c -1.91756,-5.94863 -1.91916,-5.95023 -4.08487,-10.392 z M 597.26741,677.767 c -18.00154,13.6115 -36.07389,27.10622 -54.39642,40.28349 -11.96198,8.60017 -23.88398,17.24831 -35.73619,25.99931 -33.96281,25.1031 -68.2323,49.74666 -102.7897,74.02433 5.24428,-18.23521 10.41054,-36.4861 15.34609,-54.80747 -14.26972,-10.40369 -28.56789,-20.76745 -42.88685,-31.10324 -8.74637,-6.29854 -17.4956,-12.58934 -26.18341,-18.96852 l -5.51072,-4.05919 c -3.5485,-2.60011 -7.09672,-5.2006 -10.64464,-7.8015 l -5.01403,-3.72519 -4.69717,-3.43402 c -5.59033,-4.12687 -10.0294,-6.30571 -16.87043,-7.6388 -4.32955,14.49712 -8.8567,28.90721 -13.70615,43.23796 l -1.75127,5.15533 c -2.37984,7.02631 -4.76087,14.05222 -7.15066,21.07518 -1.84875,5.39012 -3.69451,10.77848 -5.51929,16.17678 l -1.71701,5.08681 c -1.92373,5.55292 -3.65596,11.02047 -5.2324,16.69059 2.1923,4.38459 2.19283,4.38619 5.63917,7.24914 l 4.49165,3.2756 5.05684,3.70808 5.50216,3.99066 c 5.79733,4.23638 11.59956,8.46861 17.40994,12.68708 l 5.74622,4.16622 c 9.87955,7.16665 19.76886,14.3195 29.67311,21.452 8.19926,5.90223 16.39266,11.81506 24.58201,17.73107 9.85263,7.11874 19.70265,14.24113 29.56607,21.34494 16.77157,12.07304 33.51683,24.17188 50.14454,36.44268 18.50285,13.66846 37.07916,27.22837 55.74521,40.67315 6.55197,4.71643 13.10063,9.43739 19.64504,14.16429 3.29103,2.37823 6.58233,4.75608 9.87391,7.13354 8.40416,6.05421 16.81215,12.1047 25.16005,18.2363 l 5.51502,4.0635 c 3.56845,2.6144 7.13665,5.2292 10.70458,7.8443 l 5.0183,3.7295 4.6929,3.4297 c 4.17642,3.0831 7.72821,5.3066 12.58003,7.1593 4.77136,0.5358 4.77136,0.5326 14.84511,-6.8039 l 4.46595,-3.3184 c 3.48891,-2.5854 6.97712,-5.1716 10.46481,-7.7587 9.36624,-6.9477 18.72563,-13.8995 28.27723,-20.59131 l 5.35228,-3.69521 c 3.35698,-2.32202 6.71668,-4.64011 10.07945,-6.95371 l 4.77853,-3.21566 4.41029,-3.03581 c 6.0044,-4.05957 8.61754,-7.63712 11.501,-14.30133 -16.08851,-11.85232 -32.19409,-23.66824 -48.50461,-35.21381 -10.4633,-7.39466 -20.63164,-15.08584 -30.69219,-23.01913 -2.28025,-1.8411 -4.56901,-3.67173 -6.86806,-5.48932 -9.38589,-6.61825 -15.10325,-6.78802 -26.4703,-5.00974 l -4.51304,0.76216 c -4.81249,0.76765 -9.62167,1.53903 -14.4298,2.33361 -3.34163,0.55299 -6.68434,1.09959 -10.02806,1.63993 -7.73217,1.24191 -15.46309,2.49179 -23.1904,3.76374 l -6.30286,1.04048 c 15.69057,-11.53958 31.39199,-23.06112 47.19437,-34.44735 13.63237,-9.81764 27.23394,-19.67461 40.75021,-29.6517 13.67492,-10.10432 27.35649,-20.19171 41.12702,-30.16553 l 4.93268,-3.56676 c 8.22015,-5.95728 16.44702,-11.89714 24.80038,-17.66684 l 5.41224,-3.70807 c 3.44679,-2.37718 6.89504,-4.75225 10.34491,-7.12497 5.61577,-3.76543 10.86871,-7.55745 16.1682,-11.78361 v -6.5769 l -4.76996,-3.87934 c -3.5713,-2.32603 -7.13889,-4.65309 -10.68746,-7.01364 l -4.07631,-2.74038 c -8.16465,-5.48452 -16.08324,-11.26024 -23.98255,-17.11876 -14.04683,-10.4501 -28.13772,-20.82855 -42.40301,-30.97907 l -4.9241,-3.4897 -4.67575,-3.33127 -4.35891,-3.07437 c -5.24558,-3.70799 -10.51738,-6.71361 -16.31379,-9.48853 z"
     style="fill:#4d4d4d;fill-opacity:1;stroke-width:2.1923" />
</svg>
